<svg xmlns="http://www.w3.org/2000/svg" width="138.418" height="18" viewBox="0 0 138.418 18"><defs><style>.a{fill:#635114;}.a,.b{fill-rule:evenodd;}.b{fill:#867436;}</style></defs><g transform="translate(0)"><path class="a" d="M95.478,19.185a1.8,1.8,0,0,0-1.509.6,3.135,3.135,0,0,0-.476,1.932v.258a3.822,3.822,0,0,0,.472,2.158,1.756,1.756,0,0,0,1.541.667,1.565,1.565,0,0,0,1.387-.737,3.812,3.812,0,0,0,.487-2.1,3.677,3.677,0,0,0-.483-2.076A1.613,1.613,0,0,0,95.478,19.185Zm.42,7.037a2.856,2.856,0,0,1-2.4-1.114h-.1c.069.689.1,1.106.1,1.254V29.7H91.76V17.917h1.4q.058.229.243,1.091h.089a2.715,2.715,0,0,1,2.434-1.239,2.832,2.832,0,0,1,2.379,1.106,4.992,4.992,0,0,1,.852,3.105,4.991,4.991,0,0,1-.867,3.12A2.856,2.856,0,0,1,95.9,26.222Z" transform="translate(-67.315 -13.15)"/><path class="a" d="M127.748,19.082a1.743,1.743,0,0,0-1.324.523,2.5,2.5,0,0,0-.594,1.527h3.7a2.263,2.263,0,0,0-.487-1.531A1.666,1.666,0,0,0,127.748,19.082Zm.317,7.14a3.944,3.944,0,0,1-2.976-1.11,4.212,4.212,0,0,1-1.074-3.058,4.624,4.624,0,0,1,1-3.142,3.44,3.44,0,0,1,2.737-1.143,3.36,3.36,0,0,1,2.552.981,3.746,3.746,0,0,1,.937,2.7v.937H125.8a2.676,2.676,0,0,0,.641,1.825,2.233,2.233,0,0,0,1.7.639,6.249,6.249,0,0,0,1.346-.137,7.039,7.039,0,0,0,1.338-.453v1.409a5.315,5.315,0,0,1-1.283.428,7.864,7.864,0,0,1-1.482.125Z" transform="translate(-90.978 -13.15)"/><path class="a" d="M158.2,24.894a2.149,2.149,0,0,0,1.516-.527,1.912,1.912,0,0,0,.572-1.479V22.18l-1.047.044a3.587,3.587,0,0,0-1.782.409,1.243,1.243,0,0,0-.556,1.118,1.09,1.09,0,0,0,.324.844A1.394,1.394,0,0,0,158.2,24.894Zm2.582,1.18-.347-1.136h-.059a3.334,3.334,0,0,1-1.187,1.014,3.755,3.755,0,0,1-1.534.27,2.594,2.594,0,0,1-1.877-.649,2.426,2.426,0,0,1-.676-1.837,2.156,2.156,0,0,1,.937-1.9,5.392,5.392,0,0,1,2.854-.7l1.409-.044v-.436a1.65,1.65,0,0,0-.365-1.169,1.489,1.489,0,0,0-1.133-.387,3.918,3.918,0,0,0-1.2.184,9.152,9.152,0,0,0-1.106.435l-.56-1.239a6.036,6.036,0,0,1,1.453-.527,6.672,6.672,0,0,1,1.49-.181,3.531,3.531,0,0,1,2.349.678,2.658,2.658,0,0,1,.793,2.132v5.5Z" transform="translate(-113.785 -13.15)"/><path class="a" d="M190.859,26.222a3.571,3.571,0,0,1-2.814-1.081,4.511,4.511,0,0,1-.963-3.1,4.541,4.541,0,0,1,1.007-3.164A3.737,3.737,0,0,1,191,17.769a5.451,5.451,0,0,1,2.323.48l-.524,1.394a5.249,5.249,0,0,0-1.814-.428q-2.117,0-2.117,2.811a3.364,3.364,0,0,0,.527,2.061,1.825,1.825,0,0,0,1.545.69,4.438,4.438,0,0,0,2.191-.575v1.512a3.416,3.416,0,0,1-.992.391,5.986,5.986,0,0,1-1.279.118" transform="translate(-137.244 -13.15)"/><path class="a" d="M222.916,17.341h-1.741V12.326a2.193,2.193,0,0,0-.38-1.409,1.467,1.467,0,0,0-1.206-.465,1.913,1.913,0,0,0-1.6.653,3.6,3.6,0,0,0-.513,2.187v4.049h-1.733V5.865h1.733V8.778a13.557,13.557,0,0,1-.089,1.5h.111a2.407,2.407,0,0,1,.985-.914,3.168,3.168,0,0,1,1.471-.325q2.966,0,2.966,2.987v5.318" transform="translate(-158.267 -4.418)"/><path class="b" d="M267.684,19.185a1.8,1.8,0,0,0-1.509.6,3.135,3.135,0,0,0-.476,1.932v.258a3.823,3.823,0,0,0,.472,2.158,1.756,1.756,0,0,0,1.541.667,1.565,1.565,0,0,0,1.387-.737,3.813,3.813,0,0,0,.487-2.1,3.675,3.675,0,0,0-.483-2.076A1.612,1.612,0,0,0,267.684,19.185Zm.42,7.037a2.856,2.856,0,0,1-2.4-1.114h-.1c.069.689.1,1.106.1,1.254V29.7h-1.733V17.917h1.4q.058.229.243,1.091h.089a2.715,2.715,0,0,1,2.434-1.239,2.832,2.832,0,0,1,2.379,1.106,4.992,4.992,0,0,1,.852,3.105,4.993,4.993,0,0,1-.867,3.12,2.856,2.856,0,0,1-2.394,1.121Z" transform="translate(-193.646 -13.15)"/><path class="b" d="M298.986,24.894a2.148,2.148,0,0,0,1.516-.527,1.912,1.912,0,0,0,.572-1.479V22.18l-1.047.044a3.585,3.585,0,0,0-1.782.409,1.244,1.244,0,0,0-.556,1.118,1.09,1.09,0,0,0,.324.844A1.393,1.393,0,0,0,298.986,24.894Zm2.582,1.18-.347-1.136h-.059a3.332,3.332,0,0,1-1.187,1.014,3.753,3.753,0,0,1-1.534.27,2.6,2.6,0,0,1-1.877-.649,2.426,2.426,0,0,1-.676-1.837,2.156,2.156,0,0,1,.937-1.9,5.393,5.393,0,0,1,2.854-.7l1.408-.044v-.436a1.649,1.649,0,0,0-.365-1.169,1.489,1.489,0,0,0-1.132-.387,3.921,3.921,0,0,0-1.2.184,9.165,9.165,0,0,0-1.106.435l-.561-1.239a6.037,6.037,0,0,1,1.453-.527,6.675,6.675,0,0,1,1.49-.181,3.532,3.532,0,0,1,2.35.678,2.657,2.657,0,0,1,.793,2.132v5.5Z" transform="translate(-217.064 -13.15)"/><path class="b" d="M325.04,18.323h1.889l1.66,4.624a8.794,8.794,0,0,1,.5,1.859h.06a7.6,7.6,0,0,1,.243-.985q.177-.579,1.873-5.5h1.874l-3.489,9.242q-.951,2.545-3.171,2.545a4.988,4.988,0,0,1-1.121-.126V28.612a4.068,4.068,0,0,0,.893.089,1.828,1.828,0,0,0,1.763-1.453l.3-.767-3.275-8.158" transform="translate(-238.45 -13.557)"/><path class="b" d="M365.721,26.074H363.98v-5.03a2.288,2.288,0,0,0-.354-1.4,1.309,1.309,0,0,0-1.106-.461,1.686,1.686,0,0,0-1.472.653,3.829,3.829,0,0,0-.468,2.172v4.064h-1.734V17.917H360.2l.243,1.069h.088a2.264,2.264,0,0,1,.985-.9,3.173,3.173,0,0,1,1.42-.317,2.481,2.481,0,0,1,2.493,1.283h.119a2.484,2.484,0,0,1,1.017-.944,3.237,3.237,0,0,1,1.5-.339,2.74,2.74,0,0,1,2.128.738,3.265,3.265,0,0,1,.668,2.249v5.318h-1.734v-5.03a2.266,2.266,0,0,0-.358-1.4,1.319,1.319,0,0,0-1.11-.461,1.72,1.72,0,0,0-1.479.631,3.247,3.247,0,0,0-.468,1.936v4.322" transform="translate(-263.251 -13.15)"/><path class="b" d="M413.717,19.082a1.742,1.742,0,0,0-1.324.523,2.5,2.5,0,0,0-.594,1.527h3.7a2.261,2.261,0,0,0-.487-1.531A1.665,1.665,0,0,0,413.717,19.082Zm.318,7.14a3.944,3.944,0,0,1-2.976-1.11,4.212,4.212,0,0,1-1.074-3.058,4.624,4.624,0,0,1,1-3.142,3.44,3.44,0,0,1,2.737-1.143,3.361,3.361,0,0,1,2.552.981,3.747,3.747,0,0,1,.937,2.7v.937H411.77a2.673,2.673,0,0,0,.642,1.825,2.233,2.233,0,0,0,1.7.639,6.246,6.246,0,0,0,1.346-.137,7.044,7.044,0,0,0,1.339-.453v1.409a5.324,5.324,0,0,1-1.283.428,7.863,7.863,0,0,1-1.482.125Z" transform="translate(-300.766 -13.15)"/><path class="b" d="M450.414,26.074h-1.741V21.059a2.193,2.193,0,0,0-.38-1.409,1.467,1.467,0,0,0-1.205-.465,1.916,1.916,0,0,0-1.608.649,3.58,3.58,0,0,0-.509,2.176v4.064h-1.733V17.917h1.357l.243,1.069h.088a2.421,2.421,0,0,1,1.047-.9,3.513,3.513,0,0,1,1.505-.317q2.935,0,2.935,2.987v5.318" transform="translate(-325.16 -13.15)"/><path class="b" d="M478.4,20.23a4.22,4.22,0,0,0,1.268-.2v1.306a3.472,3.472,0,0,1-.741.21,5.086,5.086,0,0,1-.94.085q-2.464,0-2.464-2.6v-4.4h-1.114v-.767l1.195-.634.591-1.726h1.069v1.814h2.324v1.313h-2.324v4.367a1.224,1.224,0,0,0,.314.925,1.14,1.14,0,0,0,.822.3" transform="translate(-348.027 -8.56)"/><path class="b" d="M503.08,23.751a2.136,2.136,0,0,1-.87,1.833,4.169,4.169,0,0,1-2.494.638,5.881,5.881,0,0,1-2.618-.495v-1.5a6.429,6.429,0,0,0,2.677.664q1.6,0,1.6-.966a.766.766,0,0,0-.177-.516,2.111,2.111,0,0,0-.583-.428,9.958,9.958,0,0,0-1.128-.5,5.219,5.219,0,0,1-1.907-1.091,2.019,2.019,0,0,1-.5-1.416,1.86,1.86,0,0,1,.844-1.627,4.008,4.008,0,0,1,2.3-.579,6.511,6.511,0,0,1,2.721.582l-.561,1.306a6.05,6.05,0,0,0-2.22-.546q-1.371,0-1.372.782a.786.786,0,0,0,.358.649,7.818,7.818,0,0,0,1.56.73,7.164,7.164,0,0,1,1.468.716,2.134,2.134,0,0,1,.678.749,2.16,2.16,0,0,1,.221,1.014" transform="translate(-364.662 -13.15)"/><path class="a" d="M13.787,4.284A5.165,5.165,0,0,0,12.2,3.44c-1.946-.57-3.029-.163-4.307,1.443A6.127,6.127,0,0,0,6.535,9.968c.146,1.035.559,1.066.548,0-.031-2.978.934-4.5,1.829-5.087A3.428,3.428,0,0,1,12.574,4.7c1.717,1.053,2.559,4.184,1.689,6.815-.92,2.782-2.613,4.991-5.8,5.329-3.009.32-5.708-3.3-6.393-6.124-.937-3.868.85-6.136,2.963-6.276C5.714,4.4,6.049,6.2,7.033,5.55c.643-.468.448-1.7.9-2.374.413-.621,1.908-.946,1.965-.957.507-.107.893-.4.893-.893A.893.893,0,0,0,9.895.432H9.876A.892.892,0,0,0,9.6.484a4.051,4.051,0,0,0-2.917,3,2.414,2.414,0,0,0-1.407-.715C.086,2.268-.712,8.727.49,11.83c1.124,2.9,2.582,4.846,5.382,6.069,4.967,2.168,8.543-2.743,9.6-6.227.83-2.727-.048-6.137-1.689-7.388" transform="translate(0 -0.432)"/></g></svg>