<svg xmlns="http://www.w3.org/2000/svg" width="39.27" height="30.548" viewBox="0 0 39.27 30.548"><defs><style>.a{opacity:0.7;}</style></defs><g class="a" transform="translate(0)"><path d="M-2574.061,2062.456v-2.023a1.2,1.2,0,0,0-1.266-1.28,1.252,1.252,0,0,0-1.133.573,1.18,1.18,0,0,0-1.065-.573,1.062,1.062,0,0,0-.943.478v-.4h-.7v3.221h.707v-1.786a.754.754,0,0,1,.788-.858c.465,0,.7.3.7.85v1.793h.707v-1.786a.762.762,0,0,1,.79-.858c.479,0,.706.3.706.85v1.793Zm10.476-3.221h-1.145v-.978h-.707v.978h-.656v.639h.656v1.469c0,.749.288,1.193,1.118,1.193a1.644,1.644,0,0,0,.876-.248l-.2-.6a1.291,1.291,0,0,1-.619.183c-.351,0-.466-.216-.466-.539v-1.456h1.145Zm5.98-.082a.952.952,0,0,0-.85.473v-.391h-.692v3.221h.7v-1.807c0-.533.23-.829.689-.829a1.14,1.14,0,0,1,.438.082l.216-.662a1.543,1.543,0,0,0-.5-.087m-9.041.336a2.409,2.409,0,0,0-1.315-.336c-.814,0-1.342.391-1.342,1.032,0,.524.391.849,1.112.949l.332.05c.383.053.566.153.566.336,0,.249-.255.39-.734.39a1.725,1.725,0,0,1-1.073-.336l-.329.545a2.326,2.326,0,0,0,1.394.418c.932,0,1.471-.438,1.471-1.052,0-.566-.424-.862-1.126-.963l-.329-.048c-.3-.04-.546-.1-.546-.317,0-.236.228-.378.613-.378a2.079,2.079,0,0,1,1,.278Zm18.781-.336a.95.95,0,0,0-.849.473v-.391h-.7v3.221h.7v-1.807c0-.533.23-.829.687-.829a1.146,1.146,0,0,1,.44.082l.215-.662a1.546,1.546,0,0,0-.5-.087m-9.033,1.693a1.627,1.627,0,0,0,1.718,1.691,1.681,1.681,0,0,0,1.159-.385l-.336-.567a1.4,1.4,0,0,1-.842.291.963.963,0,0,1-.972-1.03.965.965,0,0,1,.972-1.033,1.411,1.411,0,0,1,.842.291l.336-.567a1.688,1.688,0,0,0-1.159-.383,1.628,1.628,0,0,0-1.718,1.693m6.565,0v-1.611h-.7v.391a1.219,1.219,0,0,0-1.017-.473,1.614,1.614,0,0,0-1.612,1.693,1.613,1.613,0,0,0,1.612,1.691,1.224,1.224,0,0,0,1.017-.471v.391h.7Zm-2.608,0a.967.967,0,0,1,.977-1.033.967.967,0,0,1,.971,1.033.965.965,0,0,1-.971,1.03.966.966,0,0,1-.977-1.03m-8.461-1.693a1.575,1.575,0,0,0-1.6,1.693,1.589,1.589,0,0,0,1.651,1.691,1.957,1.957,0,0,0,1.321-.452l-.343-.518a1.537,1.537,0,0,1-.938.338.9.9,0,0,1-.964-.789h2.394l.013-.27a1.545,1.545,0,0,0-1.531-1.693m-.014.626a.8.8,0,0,1,.817.782h-1.671a.829.829,0,0,1,.855-.782m17.588,1.067v-2.907h-.7v1.687a1.219,1.219,0,0,0-1.017-.473,1.614,1.614,0,0,0-1.611,1.693,1.613,1.613,0,0,0,1.611,1.691,1.223,1.223,0,0,0,1.017-.471v.391h.7Zm-2.608,0a.967.967,0,0,1,.977-1.033.968.968,0,0,1,.972,1.033.966.966,0,0,1-.972,1.03.966.966,0,0,1-.977-1.03m-23.675,0v-1.611h-.7v.391a1.221,1.221,0,0,0-1.017-.473,1.614,1.614,0,0,0-1.612,1.693,1.613,1.613,0,0,0,1.612,1.691,1.225,1.225,0,0,0,1.017-.471v.391h.7Zm-2.608,0a.967.967,0,0,1,.978-1.033.966.966,0,0,1,.97,1.033.964.964,0,0,1-.97,1.03.966.966,0,0,1-.978-1.03m30.061,1.144.129.025.1.067.071.1.024.123-.024.124-.071.1-.1.07-.129.025-.129-.025-.1-.07-.069-.1-.024-.124.024-.123.069-.1.1-.067.129-.025m0,.57.1-.02.079-.053.053-.079.02-.1-.02-.1-.053-.08-.079-.053-.1-.017-.1.017-.079.053-.054.08-.019.1.019.1.054.079.079.053.1.02m.02-.4.089.026.03.068-.024.062-.073.029.1.113h-.075l-.092-.112h-.029v.112h-.064v-.3Zm-.075.056v.08h.074l.04-.009.015-.032-.015-.029-.04-.009Z" transform="translate(2581.204 -2032.082)"/><g transform="translate(0)"><path d="M-2553.552,2022.741a11.807,11.807,0,0,0,4.375,9.205,11.813,11.813,0,0,0,4.373-9.207,11.808,11.808,0,0,0-4.373-9.2A11.805,11.805,0,0,0-2553.552,2022.741Z" transform="translate(2568.813 -2010.604)"/><path d="M-2537.38,2007.858a12.076,12.076,0,0,0-7.285,2.432,12.332,12.332,0,0,1,4.683,9.7,12.334,12.334,0,0,1-4.682,9.7,12.082,12.082,0,0,0,7.284,2.432,12.137,12.137,0,0,0,12.136-12.137A12.136,12.136,0,0,0-2537.38,2007.858Z" transform="translate(2564.513 -2007.858)"/><path d="M-2568.372,2019.994a12.33,12.33,0,0,1,4.683-9.7,12.067,12.067,0,0,0-7.286-2.434,12.136,12.136,0,0,0-12.135,12.136,12.136,12.136,0,0,0,12.135,12.136,12.075,12.075,0,0,0,7.285-2.433A12.331,12.331,0,0,1-2568.372,2019.994Z" transform="translate(2583.109 -2007.858)"/></g></g></svg>