<svg xmlns="http://www.w3.org/2000/svg" width="51.21" height="15.701" viewBox="0 0 51.21 15.701"><defs><style>.a{opacity:0.7;}</style></defs><g class="a" transform="translate(0)"><path d="M-2558.151,2115.486l2.592-15.212h4.146l-2.594,15.212Z" transform="translate(2576.192 -2100.01)"/><path d="M-2534.062,2100.457a10.7,10.7,0,0,0-3.716-.639c-4.1,0-6.983,2.063-7.007,5.02-.023,2.185,2.061,3.4,3.633,4.132,1.614.746,2.156,1.22,2.148,1.887-.01,1.02-1.29,1.486-2.48,1.486a8.7,8.7,0,0,1-3.9-.8l-.535-.243-.582,3.406a13.105,13.105,0,0,0,4.619.812c4.358,0,7.188-2.04,7.22-5.2.015-1.731-1.089-3.047-3.481-4.133-1.449-.7-2.336-1.173-2.327-1.886,0-.632.751-1.308,2.374-1.308a7.652,7.652,0,0,1,3.1.583l.372.175.562-3.3" transform="translate(2571.284 -2099.818)"/><path d="M-2515.025,2100.3h-3.2a2.064,2.064,0,0,0-2.172,1.262l-6.157,13.94h4.354s.712-1.874.873-2.286l5.31.006c.124.533.5,2.28.5,2.28h3.847l-3.355-15.2m-5.112,9.8c.342-.876,1.651-4.252,1.651-4.252-.024.041.341-.881.55-1.452l.28,1.312s.795,3.631.961,4.392Z" transform="translate(2562.881 -2100.021)"/><path d="M-2571.612,2100.294l-4.06,10.373-.433-2.109a11.869,11.869,0,0,0-5.741-6.38l3.711,13.3,4.386,0,6.527-15.182h-4.391" transform="translate(2586.176 -2100.019)"/><path d="M-2582.591,2100.278h-6.686l-.053.317c5.2,1.258,8.643,4.3,10.072,7.957l-1.454-6.99a1.736,1.736,0,0,0-1.88-1.284" transform="translate(2589.329 -2100.012)"/></g></svg>