<svg xmlns="http://www.w3.org/2000/svg" width="24.015" height="31.952" viewBox="0 0 24.015 31.952"><defs><style>.a{fill:#4a3c0f;}.b{fill:#363133;}</style></defs><g transform="translate(-392.539 -584.597)"><path class="a" d="M264.564,288.767c-3.444,0-6.889-.023-10.332.015a1.594,1.594,0,0,1-1.686-1.68q.031-8.784-.01-17.569A1.61,1.61,0,0,1,254.3,267.8q10.25.032,20.5,0a1.609,1.609,0,0,1,1.748,1.746q-.054,8.784-.006,17.569a1.59,1.59,0,0,1-1.689,1.671C271.426,288.743,267.995,288.767,264.564,288.767Zm.006-7.5c-3.513,0-7.026,0-10.539-.006-.362,0-.5.081-.5.48.022,1.736.009,3.472.01,5.208,0,.656.147.809.795.81q10.208,0,20.416,0c.673,0,.794-.124.794-.8q0-2.563,0-5.126c0-.567,0-.569-.565-.569Zm-7.521-5.7h2.184c1.116,0,1.1,0,1.081-1.125-.007-.315-.119-.4-.416-.39-.785.017-1.57.006-2.355.006h-.51a8.853,8.853,0,0,0-.006-.932c-.045-.4.131-.483.493-.475.936.021,1.873.014,2.81,0,.128,0,.358-.116.364-.192.035-.446.017-.9.017-1.345h-5.317a.509.509,0,0,0-.037.112q-.006,3.513-.012,7.026c0,.219.1.287.3.286,1.625,0,3.251,0,4.876-.011.1,0,.277-.125.281-.2.028-.421.013-.844.013-1.317H257.05Zm10.28-4.489c-1.694,0-3.3,0-4.911,0-.267,0-.274.161-.273.354,0,.619,0,1.239,0,1.858,0,1.61.008,3.22-.006,4.831,0,.329.1.448.427.422.26-.021.523,0,.784,0,.542,0,.543,0,.544-.545,0-.766,0-1.532,0-2.358H267.1v-1.513h-3.209c0-.374.021-.715-.006-1.053-.029-.358.127-.443.455-.437q1.32.024,2.641-.006c.116,0,.322-.138.329-.225C267.349,271.977,267.33,271.552,267.33,271.078Zm2.823,1.524c0,.2,0,.34,0,.476,0,1.68.008,3.36-.007,5.04,0,.325.091.448.418.422a5.559,5.559,0,0,1,.867,0c.33.026.423-.1.42-.427-.014-1.68-.006-3.36-.006-5.04v-.493h2.07c0-.44-.007-.825,0-1.21.005-.208-.067-.3-.285-.3-1.776.005-3.552,0-5.328.013a.35.35,0,0,0-.262.216c-.027.42-.012.842-.012,1.3Z" transform="translate(140.003 327.766)"/><path class="a" d="M303.38,144.635h-2.168a7.41,7.41,0,0,0-2.844-5.665,7.08,7.08,0,0,0-5.478-1.419,7.309,7.309,0,0,0-6.2,7.074h-2.227a9.5,9.5,0,0,1,14.792-7.817A8.914,8.914,0,0,1,303.38,144.635Z" transform="translate(110.711 449.479)"/><g transform="translate(395.483 610.636)"><path class="b" d="M288.155,452.389l.625-.061a.762.762,0,0,0,.229.462.692.692,0,0,0,.465.147.715.715,0,0,0,.467-.131.39.39,0,0,0,.157-.307.289.289,0,0,0-.066-.192.527.527,0,0,0-.231-.138q-.113-.039-.514-.139a1.743,1.743,0,0,1-.724-.314.827.827,0,0,1-.293-.64.817.817,0,0,1,.138-.454.862.862,0,0,1,.4-.322,1.59,1.59,0,0,1,.626-.111,1.341,1.341,0,0,1,.9.262.926.926,0,0,1,.318.7l-.642.028a.544.544,0,0,0-.177-.352.647.647,0,0,0-.407-.107.734.734,0,0,0-.438.115.232.232,0,0,0-.1.2.244.244,0,0,0,.1.193,1.688,1.688,0,0,0,.59.212,3.109,3.109,0,0,1,.693.229.893.893,0,0,1,.351.323,1,1,0,0,1-.025,1.018.909.909,0,0,1-.429.355,1.8,1.8,0,0,1-.692.116,1.377,1.377,0,0,1-.926-.279A1.212,1.212,0,0,1,288.155,452.389Z" transform="translate(-288.155 -450.19)"/><path class="b" d="M325.963,454.025v-3.179h2.357v.538H326.6v.7h1.6v.536h-1.6v.865h1.776v.536Z" transform="translate(-322.838 -450.792)"/><path class="b" d="M362.586,452.254l.622.2a1.4,1.4,0,0,1-.476.773,1.5,1.5,0,0,1-1.885-.18,1.655,1.655,0,0,1-.408-1.183,1.737,1.737,0,0,1,.41-1.233,1.405,1.405,0,0,1,1.078-.439,1.322,1.322,0,0,1,.948.345,1.254,1.254,0,0,1,.325.585l-.635.152a.657.657,0,0,0-.67-.533.723.723,0,0,0-.574.254,1.244,1.244,0,0,0-.22.822,1.334,1.334,0,0,0,.217.859.7.7,0,0,0,.564.256.643.643,0,0,0,.44-.163A.945.945,0,0,0,362.586,452.254Z" transform="translate(-354.465 -450.19)"/><path class="b" d="M400.555,450.846h.642v1.722a3.562,3.562,0,0,0,.024.531.515.515,0,0,0,.2.313.684.684,0,0,0,.424.118.647.647,0,0,0,.412-.112.441.441,0,0,0,.167-.274,3.584,3.584,0,0,0,.028-.54v-1.759h.642v1.67a4.291,4.291,0,0,1-.052.809.9.9,0,0,1-.192.4.968.968,0,0,1-.374.259,1.628,1.628,0,0,1-.612.1,1.761,1.761,0,0,1-.691-.105.988.988,0,0,1-.372-.273.876.876,0,0,1-.18-.352,3.861,3.861,0,0,1-.063-.807Z" transform="translate(-391.266 -450.792)"/><path class="b" d="M439.439,454.025v-3.179h1.351a2.315,2.315,0,0,1,.74.086.73.73,0,0,1,.37.3.916.916,0,0,1,.139.5.849.849,0,0,1-.21.591,1.01,1.01,0,0,1-.629.294,1.5,1.5,0,0,1,.344.267,3.626,3.626,0,0,1,.365.516l.388.62h-.768l-.464-.692a4.509,4.509,0,0,0-.338-.467.494.494,0,0,0-.193-.132,1.058,1.058,0,0,0-.323-.036h-.13v1.327Zm.642-1.835h.475a2.457,2.457,0,0,0,.577-.039.346.346,0,0,0,.18-.134.414.414,0,0,0,.065-.239.381.381,0,0,0-.086-.259.393.393,0,0,0-.242-.125q-.078-.011-.468-.011h-.5Z" transform="translate(-426.936 -450.792)"/><path class="b" d="M478.217,454.025v-3.179h2.357v.538h-1.715v.7h1.6v.536h-1.6v.865h1.776v.536Z" transform="translate(-462.509 -450.792)"/></g></g></svg>