<svg id="Layer_1" data-name="Layer 1" xmlns="http://www.w3.org/2000/svg" viewBox="0 0 257.56 68.85"><defs><style>.cls-1{fill:#fff;}.cls-2{fill:#ffcd03;}</style></defs><title>iK_Logo_WY</title><path class="cls-1" d="M366.87,279.59a5.2,5.2,0,0,1,6.9,0,4.8,4.8,0,0,1,0,6.65,5.2,5.2,0,0,1-6.9,0,4.8,4.8,0,0,1,0-6.65Zm7.83,32.9a2.7,2.7,0,0,1-.8,2.32,3.1,3.1,0,0,1-2,.52h-1.14a5.82,5.82,0,0,1-3.73-.93,4,4,0,0,1-1.11-3.19V292.6a2.79,2.79,0,0,1,.77-2.32,3.39,3.39,0,0,1,2-.56l1.13,0a5.85,5.85,0,0,1,3.74.93,4,4,0,0,1,1.11,3.19Z" transform="translate(-292.59 -262.58)"/><path class="cls-1" d="M389.33,302.44v9.68a2.86,2.86,0,0,1-.95,2.52,3.65,3.65,0,0,1-2.19.58l-1.08-.06a5.61,5.61,0,0,1-3.77-1q-1.08-1-1.08-3.6V283.9a2.87,2.87,0,0,1,.88-2.49,3.72,3.72,0,0,1,2.16-.61l1.14.06a5.58,5.58,0,0,1,3.76,1q1.08,1,1.08,3.6v8.8l9.43-11.68a3.25,3.25,0,0,1,2.68-1.43,1.89,1.89,0,0,1,.62.05,5.74,5.74,0,0,1,3.35,1.55,4.19,4.19,0,0,1,1.18,3,5.77,5.77,0,0,1-.64,2.69,14,14,0,0,1-2.19,2.9l-6.44,6.92,4.12,4.81,1.39,1.61,3.5,4a5.55,5.55,0,0,1,.88,1.28,2.86,2.86,0,0,1,.26,1.21,2.09,2.09,0,0,1-.21,1,4.31,4.31,0,0,1-1.13,1.77,4.79,4.79,0,0,1-3.45,1.33,5.48,5.48,0,0,1-3.07-.83,14.06,14.06,0,0,1-3-3Z" transform="translate(-292.59 -262.58)"/><path class="cls-1" d="M435.81,312.49a2.65,2.65,0,0,1-.88,2.35,3.26,3.26,0,0,1-2,.54l-1-.05a5.85,5.85,0,0,1-3.74-.93,4,4,0,0,1-1.11-3.19V299.77q0-3.82-3.66-3.82a6.76,6.76,0,0,0-3.45.88v15.66a2.65,2.65,0,0,1-.88,2.35,3.28,3.28,0,0,1-2,.54l-1-.05a5.84,5.84,0,0,1-3.73-.93,4,4,0,0,1-1.11-3.19V283.69a2.78,2.78,0,0,1,.77-2.32,3.32,3.32,0,0,1,2-.57l1.14.05a5.84,5.84,0,0,1,3.73.93,4,4,0,0,1,1.11,3.2v5a16.39,16.39,0,0,1,2.37-.65,13.35,13.35,0,0,1,2.68-.28q5.25,0,8,2.6c1.85,1.74,2.78,4.25,2.78,7.55Z" transform="translate(-292.59 -262.58)"/><path class="cls-1" d="M462.79,312.21c-2.43,2.35-5.71,3.53-9.87,3.53s-7.34-1.2-9.74-3.61-3.76-5.58-3.76-9.74a14.72,14.72,0,0,1,1-5.48,11.76,11.76,0,0,1,2.78-4.25,13.45,13.45,0,0,1,9.74-3.56,15.65,15.65,0,0,1,5.46.93,12.13,12.13,0,0,1,4.33,2.68,11.67,11.67,0,0,1,2.76,4.25,15.22,15.22,0,0,1,.95,5.43Q466.42,308.69,462.79,312.21Zm-13.2-5a3.93,3.93,0,0,0,3.38,1.7,3.78,3.78,0,0,0,3.32-1.7,8.41,8.41,0,0,0,1.16-4.8,8.14,8.14,0,0,0-1.18-4.76,4.18,4.18,0,0,0-6.7,0,8.14,8.14,0,0,0-1.19,4.76A8.24,8.24,0,0,0,449.59,307.19Z" transform="translate(-292.59 -262.58)"/><path class="cls-1" d="M493,309a3.36,3.36,0,0,1,1.18,2.32,3.22,3.22,0,0,1-.2,1,4.2,4.2,0,0,1-4.38,3,5.4,5.4,0,0,1-2.89-.77,12.89,12.89,0,0,1-2.83-2.73l-5.1-6.39v7a2.7,2.7,0,0,1-.8,2.32,3.15,3.15,0,0,1-2,.52h-1.13a5.87,5.87,0,0,1-3.74-.93,4,4,0,0,1-1.1-3.19V283.74a2.77,2.77,0,0,1,.79-2.34,3.24,3.24,0,0,1,2-.6l1.13.05a5.87,5.87,0,0,1,3.74.93,4,4,0,0,1,1.11,3.2v13.6l7.52-7.73a3.45,3.45,0,0,1,2.47-1.24l.78.11a5.86,5.86,0,0,1,2.93,1.47,3.36,3.36,0,0,1,1.08,2.5,3.9,3.9,0,0,1-.64,2.24,12.52,12.52,0,0,1-2.24,2.29l-1.55,1.34-3,2.58Z" transform="translate(-292.59 -262.58)"/><path class="cls-1" d="M522.64,312.49a2.65,2.65,0,0,1-.88,2.35,3.28,3.28,0,0,1-2,.54l-1-.05a5.87,5.87,0,0,1-3.74-.93,4,4,0,0,1-1.1-3.19V299.77q0-3.82-3.66-3.82a6.7,6.7,0,0,0-3.45.88v15.66a2.68,2.68,0,0,1-.88,2.35,3.29,3.29,0,0,1-2,.54l-1-.05a5.87,5.87,0,0,1-3.74-.93,4,4,0,0,1-1.1-3.19V283.69a2.74,2.74,0,0,1,.77-2.32,3.28,3.28,0,0,1,2-.57l1.13.05a5.87,5.87,0,0,1,3.74.93,4,4,0,0,1,1.11,3.2v5a16.39,16.39,0,0,1,2.37-.65,13.27,13.27,0,0,1,2.68-.28q5.25,0,8,2.6c1.86,1.74,2.79,4.25,2.79,7.55Z" transform="translate(-292.59 -262.58)"/><path class="cls-1" d="M547,291.5a8.23,8.23,0,0,1,3.19,7v11.54a3.45,3.45,0,0,1-.59,2,5.89,5.89,0,0,1-1.93,1.62q-3.3,2-9.43,2c-3.82,0-6.76-.71-8.84-2.14a7.1,7.1,0,0,1-3.12-6.26,7,7,0,0,1,2.12-5.46c1.4-1.27,3.59-2.06,6.54-2.37l6.75-.72v-.36q0-2.79-5.1-2.79a20.9,20.9,0,0,0-5.1.73,7.06,7.06,0,0,1-1.5.25,1.79,1.79,0,0,1-1.59-.85,3.63,3.63,0,0,1-.57-2.08,3.44,3.44,0,0,1,.59-2.12,5.1,5.1,0,0,1,2-1.39,20.23,20.23,0,0,1,7.37-1.08Q543.76,289.1,547,291.5Zm-6.73,17.67a4,4,0,0,0,1.47-.49v-4.12l-3.71.31q-3.3.21-3.3,2.16c0,1.55,1.17,2.32,3.51,2.32A11.52,11.52,0,0,0,540.23,309.17Z" transform="translate(-292.59 -262.58)"/><path class="cls-2" d="M345.37,262.58l-44.26,5.12a8.54,8.54,0,0,0-8.52,8.52V317.8a8.54,8.54,0,0,0,8.52,8.52l44.26,5.11a8.54,8.54,0,0,0,8.52-8.51V271.1A8.55,8.55,0,0,0,345.37,262.58Zm-41.78,14.95a4.48,4.48,0,0,1,3.34-1.24,4.56,4.56,0,0,1,3.32,1.31,4.47,4.47,0,0,1,1.29,3.32,5.3,5.3,0,0,1-1.25,3.52A4.08,4.08,0,0,1,307,286a4.32,4.32,0,0,1-3.38-1.64,5.24,5.24,0,0,1-1.33-3.48A4.32,4.32,0,0,1,303.59,277.53Zm7.3,37.74c-.62.72-1.2.44-1.93.59a4.24,4.24,0,0,1-1.06,0c-1.29-.14-2.65.19-3.63-.85s-1.1-1.29-1.14-3.24c-.12-6,0-13.78-.13-19.82,0-1.52.07-1.83.66-2.64s1.14-.63,1.91-.79a4.21,4.21,0,0,1,1.07,0c1.33.19,2.67-.05,3.65,1.08s1.13,1.63,1.17,3.58c.15,6,.05,13.67.15,19.66C311.64,314.39,311.5,314.55,310.89,315.27Zm35.32,1a4,4,0,0,1-1.13,1.76,4.61,4.61,0,0,1-3.37,1.26c-1.23-.1-1.77.13-3-.94a19.9,19.9,0,0,1-3.35-4c-2.37-3.27-6.61-7.9-9.31-11.44.05,3.29-.12,7.74-.08,10.78,0,1.58-.13,1.84-.84,2.58s-1.32.53-2.13.66a3.52,3.52,0,0,1-1,0c-1.33-.29-2.7.35-3.73-.93s-1.12-1-1.23-3.62c-.43-9.94-.05-22.6-.2-32.69,0-1.9.1-2,.82-2.82s1.33-.43,2.16-.62a3.55,3.55,0,0,1,1.09.06c1.39.3,2.73,0,3.78,1.27s1.08,2,1.14,4.28c.07,2.85.05,7.8-.08,11,3.86-5.12,8.08-11.15,11.29-16.39,1-1.68,1.32-1.21,2.49-1.7a.66.66,0,0,1,.61,0,5.55,5.55,0,0,1,3.4,1.24,3.81,3.81,0,0,1,1.42,2.89,3.89,3.89,0,0,1-.36,2.62,25.53,25.53,0,0,1-2.45,4.2c-2.09,3.15-5.26,8.33-7.71,11.8,1.43,2.05,3.84,5.45,5,7.13s.92,1.25,2,2.68,2.78,3.79,3.88,5.22a7.07,7.07,0,0,1,.92,1.44,2.68,2.68,0,0,1,.24,1.23A2,2,0,0,1,346.21,316.26Z" transform="translate(-292.59 -262.58)"/></svg>