<svg id="Layer_1" data-name="Layer 1" xmlns="http://www.w3.org/2000/svg" viewBox="0 0 26 26"><defs><style>.cls-1{fill:#222221;}</style></defs><path class="cls-1" d="M387.91,263.24c3.47,0,3.88,0,5.25.08a7.22,7.22,0,0,1,2.42.45,4,4,0,0,1,1.49,1,3.93,3.93,0,0,1,1,1.5,7.09,7.09,0,0,1,.45,2.41c.06,1.37.08,1.78.08,5.25s0,3.89-.08,5.26a7.15,7.15,0,0,1-.45,2.41,3.93,3.93,0,0,1-1,1.5,4.13,4.13,0,0,1-1.49,1,7.22,7.22,0,0,1-2.42.45c-1.37.06-1.78.07-5.25.07s-3.89,0-5.26-.07a7.21,7.21,0,0,1-2.41-.45,4.26,4.26,0,0,1-2.47-2.47,7.15,7.15,0,0,1-.45-2.41c-.06-1.37-.07-1.78-.07-5.26s0-3.88.07-5.25a7.09,7.09,0,0,1,.45-2.41,4.17,4.17,0,0,1,1-1.5,4,4,0,0,1,1.5-1,7.21,7.21,0,0,1,2.41-.45c1.37-.06,1.79-.08,5.26-.08m0-2.34c-3.53,0-4,0-5.36.08a9.52,9.52,0,0,0-3.16.6,6.52,6.52,0,0,0-2.3,1.5,6.29,6.29,0,0,0-1.5,2.31,9.68,9.68,0,0,0-.61,3.15c-.06,1.39-.07,1.83-.07,5.36s0,4,.07,5.37a9.74,9.74,0,0,0,.61,3.15,6.18,6.18,0,0,0,1.5,2.3,6.26,6.26,0,0,0,2.3,1.5,9.25,9.25,0,0,0,3.16.61c1.38.06,1.83.08,5.36.08s4,0,5.36-.08a9.18,9.18,0,0,0,3.15-.61,6.29,6.29,0,0,0,2.31-1.5,6.44,6.44,0,0,0,1.5-2.3,9.51,9.51,0,0,0,.6-3.15c.06-1.39.08-1.83.08-5.37s0-4-.08-5.36a9.45,9.45,0,0,0-.6-3.15,6.62,6.62,0,0,0-3.81-3.81,9.45,9.45,0,0,0-3.15-.6c-1.39-.06-1.83-.08-5.36-.08" transform="translate(-374.91 -260.9)"/><path class="cls-1" d="M387.91,267.23a6.68,6.68,0,1,0,6.67,6.67,6.68,6.68,0,0,0-6.67-6.67m0,11a4.34,4.34,0,1,1,4.33-4.34,4.34,4.34,0,0,1-4.33,4.34" transform="translate(-374.91 -260.9)"/><path class="cls-1" d="M396.41,267a1.56,1.56,0,1,1-1.56-1.56,1.56,1.56,0,0,1,1.56,1.56" transform="translate(-374.91 -260.9)"/></svg>