<svg id="Layer_1" data-name="Layer 1" xmlns="http://www.w3.org/2000/svg" viewBox="0 0 25.27 20.54"><defs><style>.cls-1{fill:#222221;}</style></defs><path class="cls-1" d="M434.3,281.84A14.75,14.75,0,0,0,457,268.75a10.44,10.44,0,0,0,2.58-2.68,10.29,10.29,0,0,1-3,.81,5.16,5.16,0,0,0,2.27-2.87,10.17,10.17,0,0,1-3.29,1.26,5.19,5.19,0,0,0-8.83,4.73,14.7,14.7,0,0,1-10.69-5.42,5.2,5.2,0,0,0,1.61,6.93,5.19,5.19,0,0,1-2.35-.65,5.18,5.18,0,0,0,4.16,5.15,5.24,5.24,0,0,1-2.34.09,5.18,5.18,0,0,0,4.84,3.6A10.44,10.44,0,0,1,434.3,281.84Z" transform="translate(-434.3 -263.64)"/></svg>